<mxfile host="65bd71144e">
    <diagram id="prtHgNgQTEPvFCAcTncT" name="Page-1">
        <mxGraphModel dx="3035" dy="1943" grid="1" gridSize="10" guides="1" tooltips="1" connect="1" arrows="1" fold="1" page="1" pageScale="1" pageWidth="827" pageHeight="1169" math="0" shadow="0">
            <root>
                <mxCell id="0"/>
                <mxCell id="1" parent="0"/>
                <mxCell id="AKki9gyRlwZW3A253g2z-1" value="Analyser&lt;br&gt;Fixed QN" style="whiteSpace=wrap;html=1;aspect=fixed;" parent="1" vertex="1">
                    <mxGeometry x="103" y="280" width="80" height="80" as="geometry"/>
                </mxCell>
                <mxCell id="AKki9gyRlwZW3A253g2z-2" value="Analyser&lt;br&gt;MS Grid" style="whiteSpace=wrap;html=1;aspect=fixed;" parent="1" vertex="1">
                    <mxGeometry x="103" y="530" width="80" height="80" as="geometry"/>
                </mxCell>
                <mxCell id="AKki9gyRlwZW3A253g2z-3" value="Analyser&lt;br&gt;MS MCQ" style="whiteSpace=wrap;html=1;aspect=fixed;" parent="1" vertex="1">
                    <mxGeometry x="103" y="800" width="80" height="80" as="geometry"/>
                </mxCell>
                <mxCell id="AKki9gyRlwZW3A253g2z-4" value="Postprocessor" style="whiteSpace=wrap;html=1;aspect=fixed;" parent="1" vertex="1">
                    <mxGeometry x="533" y="530" width="80" height="80" as="geometry"/>
                </mxCell>
                <mxCell id="AKki9gyRlwZW3A253g2z-5" value="Categorizer" style="whiteSpace=wrap;html=1;aspect=fixed;" parent="1" vertex="1">
                    <mxGeometry x="970" y="350" width="80" height="80" as="geometry"/>
                </mxCell>
                <mxCell id="AKki9gyRlwZW3A253g2z-6" value="QP" style="ellipse;whiteSpace=wrap;html=1;aspect=fixed;" parent="1" vertex="1">
                    <mxGeometry x="-177" y="380" width="80" height="80" as="geometry"/>
                </mxCell>
                <mxCell id="AKki9gyRlwZW3A253g2z-7" value="MS" style="ellipse;whiteSpace=wrap;html=1;aspect=fixed;" parent="1" vertex="1">
                    <mxGeometry x="-177" y="680" width="80" height="80" as="geometry"/>
                </mxCell>
                <mxCell id="AKki9gyRlwZW3A253g2z-8" value="" style="endArrow=classic;html=1;rounded=0;entryX=0;entryY=0.25;entryDx=0;entryDy=0;" parent="1" source="AKki9gyRlwZW3A253g2z-6" target="AKki9gyRlwZW3A253g2z-1" edge="1">
                    <mxGeometry width="50" height="50" relative="1" as="geometry">
                        <mxPoint x="-67" y="400" as="sourcePoint"/>
                        <mxPoint x="73" y="340" as="targetPoint"/>
                    </mxGeometry>
                </mxCell>
                <mxCell id="AKki9gyRlwZW3A253g2z-18" value="QP" style="edgeLabel;html=1;align=center;verticalAlign=middle;resizable=0;points=[];" parent="AKki9gyRlwZW3A253g2z-8" vertex="1" connectable="0">
                    <mxGeometry x="-0.0208" y="1" relative="1" as="geometry">
                        <mxPoint as="offset"/>
                    </mxGeometry>
                </mxCell>
                <mxCell id="AKki9gyRlwZW3A253g2z-9" value="" style="endArrow=classic;html=1;rounded=0;" parent="1" source="AKki9gyRlwZW3A253g2z-7" target="AKki9gyRlwZW3A253g2z-2" edge="1">
                    <mxGeometry width="50" height="50" relative="1" as="geometry">
                        <mxPoint x="-57" y="580" as="sourcePoint"/>
                        <mxPoint x="63" y="510" as="targetPoint"/>
                    </mxGeometry>
                </mxCell>
                <mxCell id="AKki9gyRlwZW3A253g2z-10" value="MS&lt;br&gt;Non MCQ&lt;br&gt;Grid" style="edgeLabel;html=1;align=center;verticalAlign=middle;resizable=0;points=[];" parent="AKki9gyRlwZW3A253g2z-9" vertex="1" connectable="0">
                    <mxGeometry x="-0.101" y="1" relative="1" as="geometry">
                        <mxPoint as="offset"/>
                    </mxGeometry>
                </mxCell>
                <mxCell id="AKki9gyRlwZW3A253g2z-11" value="MS&lt;br&gt;MCQ" style="endArrow=classic;html=1;rounded=0;" parent="1" source="AKki9gyRlwZW3A253g2z-7" target="AKki9gyRlwZW3A253g2z-3" edge="1">
                    <mxGeometry width="50" height="50" relative="1" as="geometry">
                        <mxPoint x="-57" y="620" as="sourcePoint"/>
                        <mxPoint x="73" y="660" as="targetPoint"/>
                    </mxGeometry>
                </mxCell>
                <mxCell id="AKki9gyRlwZW3A253g2z-12" value="" style="endArrow=classic;html=1;rounded=0;" parent="1" source="AKki9gyRlwZW3A253g2z-7" target="AKki9gyRlwZW3A253g2z-1" edge="1">
                    <mxGeometry width="50" height="50" relative="1" as="geometry">
                        <mxPoint x="-87" y="540" as="sourcePoint"/>
                        <mxPoint x="43" y="390" as="targetPoint"/>
                    </mxGeometry>
                </mxCell>
                <mxCell id="AKki9gyRlwZW3A253g2z-13" value="MS&lt;br&gt;Non MCQ&lt;br&gt;No Grid" style="edgeLabel;html=1;align=center;verticalAlign=middle;resizable=0;points=[];" parent="AKki9gyRlwZW3A253g2z-12" vertex="1" connectable="0">
                    <mxGeometry x="0.0129" y="4" relative="1" as="geometry">
                        <mxPoint x="-1" as="offset"/>
                    </mxGeometry>
                </mxCell>
                <mxCell id="AKki9gyRlwZW3A253g2z-14" value="Question&lt;br&gt;Raw Text" style="ellipse;whiteSpace=wrap;html=1;aspect=fixed;" parent="1" vertex="1">
                    <mxGeometry x="333" y="350" width="80" height="80" as="geometry"/>
                </mxCell>
                <mxCell id="AKki9gyRlwZW3A253g2z-15" value="MS&lt;br&gt;Non-MCQ&lt;br&gt;Raw Text" style="ellipse;whiteSpace=wrap;html=1;aspect=fixed;" parent="1" vertex="1">
                    <mxGeometry x="333" y="530" width="80" height="80" as="geometry"/>
                </mxCell>
                <mxCell id="AKki9gyRlwZW3A253g2z-16" value="MS&lt;br&gt;MCQ" style="ellipse;whiteSpace=wrap;html=1;aspect=fixed;" parent="1" vertex="1">
                    <mxGeometry x="333" y="700" width="80" height="80" as="geometry"/>
                </mxCell>
                <mxCell id="AKki9gyRlwZW3A253g2z-17" value="" style="endArrow=classic;html=1;rounded=0;" parent="1" source="AKki9gyRlwZW3A253g2z-1" target="AKki9gyRlwZW3A253g2z-14" edge="1">
                    <mxGeometry width="50" height="50" relative="1" as="geometry">
                        <mxPoint x="213" y="340" as="sourcePoint"/>
                        <mxPoint x="313" y="360" as="targetPoint"/>
                    </mxGeometry>
                </mxCell>
                <mxCell id="AKki9gyRlwZW3A253g2z-19" value="QP" style="edgeLabel;html=1;align=center;verticalAlign=middle;resizable=0;points=[];" parent="AKki9gyRlwZW3A253g2z-17" vertex="1" connectable="0">
                    <mxGeometry x="-0.2845" y="1" relative="1" as="geometry">
                        <mxPoint as="offset"/>
                    </mxGeometry>
                </mxCell>
                <mxCell id="AKki9gyRlwZW3A253g2z-20" value="" style="endArrow=classic;html=1;rounded=0;" parent="1" source="AKki9gyRlwZW3A253g2z-1" target="AKki9gyRlwZW3A253g2z-15" edge="1">
                    <mxGeometry width="50" height="50" relative="1" as="geometry">
                        <mxPoint x="213" y="370" as="sourcePoint"/>
                        <mxPoint x="303" y="480" as="targetPoint"/>
                    </mxGeometry>
                </mxCell>
                <mxCell id="AKki9gyRlwZW3A253g2z-21" value="MS&lt;br&gt;Non MCQ&lt;br&gt;No Grid" style="edgeLabel;html=1;align=center;verticalAlign=middle;resizable=0;points=[];" parent="AKki9gyRlwZW3A253g2z-20" vertex="1" connectable="0">
                    <mxGeometry x="0.0129" y="4" relative="1" as="geometry">
                        <mxPoint x="-1" as="offset"/>
                    </mxGeometry>
                </mxCell>
                <mxCell id="AKki9gyRlwZW3A253g2z-22" value="" style="endArrow=classic;html=1;rounded=0;" parent="1" source="AKki9gyRlwZW3A253g2z-2" target="AKki9gyRlwZW3A253g2z-15" edge="1">
                    <mxGeometry width="50" height="50" relative="1" as="geometry">
                        <mxPoint x="203" y="510" as="sourcePoint"/>
                        <mxPoint x="303" y="510" as="targetPoint"/>
                    </mxGeometry>
                </mxCell>
                <mxCell id="AKki9gyRlwZW3A253g2z-23" value="MS&lt;br&gt;Non MCQ&lt;br&gt;Grid" style="edgeLabel;html=1;align=center;verticalAlign=middle;resizable=0;points=[];" parent="AKki9gyRlwZW3A253g2z-22" vertex="1" connectable="0">
                    <mxGeometry x="-0.101" y="1" relative="1" as="geometry">
                        <mxPoint as="offset"/>
                    </mxGeometry>
                </mxCell>
                <mxCell id="AKki9gyRlwZW3A253g2z-24" value="MS&lt;br&gt;MCQ" style="endArrow=classic;html=1;rounded=0;" parent="1" source="AKki9gyRlwZW3A253g2z-3" target="AKki9gyRlwZW3A253g2z-16" edge="1">
                    <mxGeometry width="50" height="50" relative="1" as="geometry">
                        <mxPoint x="213" y="660" as="sourcePoint"/>
                        <mxPoint x="303" y="650" as="targetPoint"/>
                    </mxGeometry>
                </mxCell>
                <mxCell id="AKki9gyRlwZW3A253g2z-25" value="" style="endArrow=classic;html=1;rounded=0;" parent="1" source="AKki9gyRlwZW3A253g2z-14" target="AKki9gyRlwZW3A253g2z-4" edge="1">
                    <mxGeometry width="50" height="50" relative="1" as="geometry">
                        <mxPoint x="433" y="380" as="sourcePoint"/>
                        <mxPoint x="523" y="430" as="targetPoint"/>
                    </mxGeometry>
                </mxCell>
                <mxCell id="AKki9gyRlwZW3A253g2z-26" value="QP" style="edgeLabel;html=1;align=center;verticalAlign=middle;resizable=0;points=[];" parent="AKki9gyRlwZW3A253g2z-25" vertex="1" connectable="0">
                    <mxGeometry x="-0.2845" y="1" relative="1" as="geometry">
                        <mxPoint as="offset"/>
                    </mxGeometry>
                </mxCell>
                <mxCell id="AKki9gyRlwZW3A253g2z-27" value="" style="endArrow=classic;html=1;rounded=0;" parent="1" source="AKki9gyRlwZW3A253g2z-15" target="AKki9gyRlwZW3A253g2z-4" edge="1">
                    <mxGeometry width="50" height="50" relative="1" as="geometry">
                        <mxPoint x="433" y="505" as="sourcePoint"/>
                        <mxPoint x="523" y="485" as="targetPoint"/>
                    </mxGeometry>
                </mxCell>
                <mxCell id="AKki9gyRlwZW3A253g2z-28" value="MS&lt;br&gt;Non MCQ" style="edgeLabel;html=1;align=center;verticalAlign=middle;resizable=0;points=[];" parent="AKki9gyRlwZW3A253g2z-27" vertex="1" connectable="0">
                    <mxGeometry x="0.0129" y="4" relative="1" as="geometry">
                        <mxPoint x="-5" y="4" as="offset"/>
                    </mxGeometry>
                </mxCell>
                <mxCell id="AKki9gyRlwZW3A253g2z-33" value="Question&lt;br&gt;Nicer Text" style="ellipse;whiteSpace=wrap;html=1;aspect=fixed;" parent="1" vertex="1">
                    <mxGeometry x="743" y="280" width="80" height="80" as="geometry"/>
                </mxCell>
                <mxCell id="AKki9gyRlwZW3A253g2z-34" value="MS&lt;br&gt;Non-MCQ&lt;br&gt;Nicer Text" style="ellipse;whiteSpace=wrap;html=1;aspect=fixed;" parent="1" vertex="1">
                    <mxGeometry x="743" y="530" width="80" height="80" as="geometry"/>
                </mxCell>
                <mxCell id="AKki9gyRlwZW3A253g2z-35" value="" style="endArrow=classic;html=1;rounded=0;" parent="1" source="AKki9gyRlwZW3A253g2z-4" target="AKki9gyRlwZW3A253g2z-33" edge="1">
                    <mxGeometry width="50" height="50" relative="1" as="geometry">
                        <mxPoint x="643" y="440" as="sourcePoint"/>
                        <mxPoint x="723" y="400" as="targetPoint"/>
                    </mxGeometry>
                </mxCell>
                <mxCell id="AKki9gyRlwZW3A253g2z-36" value="QP" style="edgeLabel;html=1;align=center;verticalAlign=middle;resizable=0;points=[];" parent="AKki9gyRlwZW3A253g2z-35" vertex="1" connectable="0">
                    <mxGeometry x="-0.2845" y="1" relative="1" as="geometry">
                        <mxPoint as="offset"/>
                    </mxGeometry>
                </mxCell>
                <mxCell id="AKki9gyRlwZW3A253g2z-45" value="" style="endArrow=classic;html=1;rounded=0;" parent="1" source="AKki9gyRlwZW3A253g2z-4" target="AKki9gyRlwZW3A253g2z-34" edge="1">
                    <mxGeometry width="50" height="50" relative="1" as="geometry">
                        <mxPoint x="643" y="480" as="sourcePoint"/>
                        <mxPoint x="733" y="520" as="targetPoint"/>
                    </mxGeometry>
                </mxCell>
                <mxCell id="AKki9gyRlwZW3A253g2z-46" value="MS&lt;br&gt;Non MCQ" style="edgeLabel;html=1;align=center;verticalAlign=middle;resizable=0;points=[];" parent="AKki9gyRlwZW3A253g2z-45" vertex="1" connectable="0">
                    <mxGeometry x="0.0129" y="4" relative="1" as="geometry">
                        <mxPoint x="-5" y="4" as="offset"/>
                    </mxGeometry>
                </mxCell>
                <mxCell id="AKki9gyRlwZW3A253g2z-49" value="Storage" style="shape=cylinder3;whiteSpace=wrap;html=1;boundedLbl=1;backgroundOutline=1;size=15;" parent="1" vertex="1">
                    <mxGeometry x="980" y="700" width="60" height="80" as="geometry"/>
                </mxCell>
                <mxCell id="AKki9gyRlwZW3A253g2z-53" value="" style="endArrow=classic;html=1;rounded=0;" parent="1" source="AKki9gyRlwZW3A253g2z-33" target="AKki9gyRlwZW3A253g2z-5" edge="1">
                    <mxGeometry width="50" height="50" relative="1" as="geometry">
                        <mxPoint x="896" y="400" as="sourcePoint"/>
                        <mxPoint x="996" y="460" as="targetPoint"/>
                    </mxGeometry>
                </mxCell>
                <mxCell id="AKki9gyRlwZW3A253g2z-54" value="QP" style="edgeLabel;html=1;align=center;verticalAlign=middle;resizable=0;points=[];" parent="AKki9gyRlwZW3A253g2z-53" vertex="1" connectable="0">
                    <mxGeometry x="-0.2845" y="1" relative="1" as="geometry">
                        <mxPoint as="offset"/>
                    </mxGeometry>
                </mxCell>
                <mxCell id="AKki9gyRlwZW3A253g2z-55" value="" style="endArrow=classic;html=1;rounded=0;" parent="1" source="AKki9gyRlwZW3A253g2z-5" target="AKki9gyRlwZW3A253g2z-72" edge="1">
                    <mxGeometry width="50" height="50" relative="1" as="geometry">
                        <mxPoint x="1116" y="470" as="sourcePoint"/>
                        <mxPoint x="1196" y="510" as="targetPoint"/>
                    </mxGeometry>
                </mxCell>
                <mxCell id="AKki9gyRlwZW3A253g2z-56" value="QP" style="edgeLabel;html=1;align=center;verticalAlign=middle;resizable=0;points=[];" parent="AKki9gyRlwZW3A253g2z-55" vertex="1" connectable="0">
                    <mxGeometry x="-0.2845" y="1" relative="1" as="geometry">
                        <mxPoint as="offset"/>
                    </mxGeometry>
                </mxCell>
                <mxCell id="AKki9gyRlwZW3A253g2z-57" value="" style="endArrow=classic;html=1;rounded=0;" parent="1" source="AKki9gyRlwZW3A253g2z-34" target="AKki9gyRlwZW3A253g2z-49" edge="1">
                    <mxGeometry width="50" height="50" relative="1" as="geometry">
                        <mxPoint x="896" y="540" as="sourcePoint"/>
                        <mxPoint x="1186" y="540" as="targetPoint"/>
                    </mxGeometry>
                </mxCell>
                <mxCell id="AKki9gyRlwZW3A253g2z-58" value="MS" style="edgeLabel;html=1;align=center;verticalAlign=middle;resizable=0;points=[];" parent="AKki9gyRlwZW3A253g2z-57" vertex="1" connectable="0">
                    <mxGeometry x="-0.2845" y="1" relative="1" as="geometry">
                        <mxPoint as="offset"/>
                    </mxGeometry>
                </mxCell>
                <mxCell id="AKki9gyRlwZW3A253g2z-59" value="" style="endArrow=classic;html=1;rounded=0;" parent="1" source="AKki9gyRlwZW3A253g2z-16" target="AKki9gyRlwZW3A253g2z-49" edge="1">
                    <mxGeometry width="50" height="50" relative="1" as="geometry">
                        <mxPoint x="473" y="639.6" as="sourcePoint"/>
                        <mxPoint x="1133" y="570" as="targetPoint"/>
                    </mxGeometry>
                </mxCell>
                <mxCell id="AKki9gyRlwZW3A253g2z-60" value="MS" style="edgeLabel;html=1;align=center;verticalAlign=middle;resizable=0;points=[];" parent="AKki9gyRlwZW3A253g2z-59" vertex="1" connectable="0">
                    <mxGeometry x="-0.2845" y="1" relative="1" as="geometry">
                        <mxPoint as="offset"/>
                    </mxGeometry>
                </mxCell>
                <mxCell id="AKki9gyRlwZW3A253g2z-66" value="Crawler" style="whiteSpace=wrap;html=1;aspect=fixed;" parent="1" vertex="1">
                    <mxGeometry x="-550" y="530" width="80" height="80" as="geometry"/>
                </mxCell>
                <mxCell id="AKki9gyRlwZW3A253g2z-68" value="PDF" style="ellipse;whiteSpace=wrap;html=1;aspect=fixed;" parent="1" vertex="1">
                    <mxGeometry x="-347" y="530" width="80" height="80" as="geometry"/>
                </mxCell>
                <mxCell id="AKki9gyRlwZW3A253g2z-69" value="" style="endArrow=classic;html=1;rounded=0;" parent="1" source="AKki9gyRlwZW3A253g2z-68" target="AKki9gyRlwZW3A253g2z-6" edge="1">
                    <mxGeometry width="50" height="50" relative="1" as="geometry">
                        <mxPoint x="-227" y="550" as="sourcePoint"/>
                        <mxPoint x="-177" y="500" as="targetPoint"/>
                    </mxGeometry>
                </mxCell>
                <mxCell id="AKki9gyRlwZW3A253g2z-70" value="" style="endArrow=classic;html=1;rounded=0;" parent="1" source="AKki9gyRlwZW3A253g2z-66" target="AKki9gyRlwZW3A253g2z-68" edge="1">
                    <mxGeometry width="50" height="50" relative="1" as="geometry">
                        <mxPoint x="-387" y="680" as="sourcePoint"/>
                        <mxPoint x="-337" y="630" as="targetPoint"/>
                    </mxGeometry>
                </mxCell>
                <mxCell id="AKki9gyRlwZW3A253g2z-71" value="" style="endArrow=classic;html=1;rounded=0;" parent="1" source="AKki9gyRlwZW3A253g2z-68" target="AKki9gyRlwZW3A253g2z-7" edge="1">
                    <mxGeometry width="50" height="50" relative="1" as="geometry">
                        <mxPoint x="-177" y="630" as="sourcePoint"/>
                        <mxPoint x="-127" y="580" as="targetPoint"/>
                    </mxGeometry>
                </mxCell>
                <mxCell id="AKki9gyRlwZW3A253g2z-72" value="Question&lt;br&gt;Nicer Text&lt;br&gt;Categorized" style="ellipse;whiteSpace=wrap;html=1;aspect=fixed;" parent="1" vertex="1">
                    <mxGeometry x="1210" y="530" width="80" height="80" as="geometry"/>
                </mxCell>
                <mxCell id="AKki9gyRlwZW3A253g2z-73" value="" style="endArrow=classic;html=1;rounded=0;" parent="1" source="AKki9gyRlwZW3A253g2z-72" target="AKki9gyRlwZW3A253g2z-49" edge="1">
                    <mxGeometry width="50" height="50" relative="1" as="geometry">
                        <mxPoint x="973" y="670" as="sourcePoint"/>
                        <mxPoint x="1023" y="620" as="targetPoint"/>
                    </mxGeometry>
                </mxCell>
            </root>
        </mxGraphModel>
    </diagram>
</mxfile>